<svg preserveAspectRatio="none" width="100%" height="100%" overflow="visible" style="display: block;" viewBox="0 0 15.999 15.999" fill="none" xmlns="http://www.w3.org/2000/svg">
<g id="Image">
<path id="Vector" d="M12.6659 1.99988H3.33313C2.59679 1.99988 1.99988 2.59679 1.99988 3.33313V12.6659C1.99988 13.4022 2.59679 13.9991 3.33313 13.9991H12.6659C13.4022 13.9991 13.9991 13.4022 13.9991 12.6659V3.33313C13.9991 2.59679 13.4022 1.99988 12.6659 1.99988Z" stroke="var(--stroke-0, #4D4745)" stroke-width="1.33325" stroke-linecap="round" stroke-linejoin="round"/>
<path id="Vector_2" d="M5.99963 7.33288C6.73596 7.33288 7.33288 6.73596 7.33288 5.99963C7.33288 5.26329 6.73596 4.66638 5.99963 4.66638C5.26329 4.66638 4.66638 5.26329 4.66638 5.99963C4.66638 6.73596 5.26329 7.33288 5.99963 7.33288Z" stroke="var(--stroke-0, #4D4745)" stroke-width="1.33325" stroke-linecap="round" stroke-linejoin="round"/>
<path id="Vector_3" d="M13.9991 9.99938L11.9419 7.94217C11.6919 7.69222 11.3528 7.55181 10.9993 7.55181C10.6458 7.55181 10.3067 7.69222 10.0567 7.94217L3.99975 13.9991" stroke="var(--stroke-0, #4D4745)" stroke-width="1.33325" stroke-linecap="round" stroke-linejoin="round"/>
</g>
</svg>
